<svg viewBox="0 0 19 19" fill="none" xmlns="http://www.w3.org/2000/svg">
<path fill-rule="evenodd" clip-rule="evenodd" d="M16.3607 7.83984H2.25C1.92225 7.83984 1.65625 7.57384 1.65625 7.24609C1.65625 6.91834 1.92225 6.65234 2.25 6.65234H16.3607C16.6884 6.65234 16.9544 6.91834 16.9544 7.24609C16.9544 7.57384 16.6884 7.83984 16.3607 7.83984Z" fill="#696984"/>
<path fill-rule="evenodd" clip-rule="evenodd" d="M12.8274 10.9316C12.4996 10.9316 12.2305 10.6656 12.2305 10.3379C12.2305 10.0101 12.4925 9.74414 12.8203 9.74414H12.8274C13.1551 9.74414 13.4211 10.0101 13.4211 10.3379C13.4211 10.6656 13.1551 10.9316 12.8274 10.9316Z" fill="#696984"/>
<path fill-rule="evenodd" clip-rule="evenodd" d="M9.31371 10.9316C8.98596 10.9316 8.7168 10.6656 8.7168 10.3379C8.7168 10.0101 8.97884 9.74414 9.30659 9.74414H9.31371C9.64146 9.74414 9.90746 10.0101 9.90746 10.3379C9.90746 10.6656 9.64146 10.9316 9.31371 10.9316Z" fill="#696984"/>
<path fill-rule="evenodd" clip-rule="evenodd" d="M5.79302 10.9316C5.46527 10.9316 5.19531 10.6656 5.19531 10.3379C5.19531 10.0101 5.45815 9.74414 5.7859 9.74414H5.79302C6.12077 9.74414 6.38677 10.0101 6.38677 10.3379C6.38677 10.6656 6.12077 10.9316 5.79302 10.9316Z" fill="#696984"/>
<path fill-rule="evenodd" clip-rule="evenodd" d="M12.8274 14.0098C12.4996 14.0098 12.2305 13.7438 12.2305 13.416C12.2305 13.0883 12.4925 12.8223 12.8203 12.8223H12.8274C13.1551 12.8223 13.4211 13.0883 13.4211 13.416C13.4211 13.7438 13.1551 14.0098 12.8274 14.0098Z" fill="#696984"/>
<path fill-rule="evenodd" clip-rule="evenodd" d="M9.31371 14.0098C8.98596 14.0098 8.7168 13.7438 8.7168 13.416C8.7168 13.0883 8.97884 12.8223 9.30659 12.8223H9.31371C9.64146 12.8223 9.90746 13.0883 9.90746 13.416C9.90746 13.7438 9.64146 14.0098 9.31371 14.0098Z" fill="#696984"/>
<path fill-rule="evenodd" clip-rule="evenodd" d="M5.79302 14.0098C5.46527 14.0098 5.19531 13.7438 5.19531 13.416C5.19531 13.0883 5.45815 12.8223 5.7859 12.8223H5.79302C6.12077 12.8223 6.38677 13.0883 6.38677 13.416C6.38677 13.7438 6.12077 14.0098 5.79302 14.0098Z" fill="#696984"/>
<path fill-rule="evenodd" clip-rule="evenodd" d="M12.5039 4.58389C12.1762 4.58389 11.9102 4.31789 11.9102 3.99014V1.38477C11.9102 1.05702 12.1762 0.791016 12.5039 0.791016C12.8317 0.791016 13.0977 1.05702 13.0977 1.38477V3.99014C13.0977 4.31789 12.8317 4.58389 12.5039 4.58389Z" fill="#696984"/>
<path fill-rule="evenodd" clip-rule="evenodd" d="M6.10938 4.58389C5.78163 4.58389 5.51562 4.31789 5.51562 3.99014V1.38477C5.51562 1.05702 5.78163 0.791016 6.10938 0.791016C6.43713 0.791016 6.70312 1.05702 6.70312 1.38477V3.99014C6.70312 4.31789 6.43713 4.58389 6.10938 4.58389Z" fill="#696984"/>
<mask id="mask0_890_23260" style="mask-type:luminance" maskUnits="userSpaceOnUse" x="1" y="2" width="17" height="16">
<path fill-rule="evenodd" clip-rule="evenodd" d="M1.58398 2.04102H17.0215V17.8117H1.58398V2.04102Z" fill="white"/>
</mask>
<g mask="url(#mask0_890_23260)">
<path fill-rule="evenodd" clip-rule="evenodd" d="M5.95478 3.22852C3.90198 3.22852 2.77148 4.32339 2.77148 6.31127V13.4751C2.77148 15.5065 3.90198 16.6243 5.95478 16.6243H12.6507C14.7035 16.6243 15.834 15.5271 15.834 13.5352V6.31127C15.8372 5.33356 15.5743 4.57356 15.0526 4.05106C14.5159 3.51272 13.6886 3.22852 12.6578 3.22852H5.95478ZM12.6507 17.8118H5.95478C3.25915 17.8118 1.58398 16.1501 1.58398 13.4751V6.31127C1.58398 3.6766 3.25915 2.04102 5.95478 2.04102H12.6578C14.0108 2.04102 15.1294 2.44635 15.8934 3.21189C16.6352 3.95685 17.0254 5.02797 17.0215 6.31285V13.5352C17.0215 16.1731 15.3463 17.8118 12.6507 17.8118Z" fill="#696984"/>
</g>
</svg>
