<svg  viewBox="0 0 15 15" fill="none" xmlns="http://www.w3.org/2000/svg">
<path fill-rule="evenodd" clip-rule="evenodd" d="M7.49935 14.5827C3.58935 14.5827 0.416016 11.4164 0.416016 7.49935C0.416016 3.58935 3.58935 0.416016 7.49935 0.416016C11.4164 0.416016 14.5827 3.58935 14.5827 7.49935C14.5827 11.4164 11.4164 14.5827 7.49935 14.5827ZM9.75893 10.1273C9.84393 10.1768 9.93602 10.2052 10.0352 10.2052C10.2123 10.2052 10.3893 10.1131 10.4885 9.9431C10.6373 9.69518 10.5593 9.36935 10.3043 9.21352L7.78268 7.71185V4.43935C7.78268 4.14185 7.54185 3.9081 7.25143 3.9081C6.96102 3.9081 6.72018 4.14185 6.72018 4.43935V8.01643C6.72018 8.2006 6.81935 8.3706 6.98227 8.46977L9.75893 10.1273Z" fill="#FFA800"/>
</svg>
