<svg width="44" height="45" viewBox="0 0 44 45" fill="none" xmlns="http://www.w3.org/2000/svg">
<g filter="url(#filter0_ii_1_64200)">
<rect y="0.5" width="44" height="44" rx="17" fill="url(#paint0_linear_1_64200)"/>
<g clip-path="url(#clip0_1_64200)">
<path d="M32 29.5V31.5H30V29.5H14V31.5H12V29.5C11.7348 29.5 11.4804 29.3946 11.2929 29.2071C11.1054 29.0196 11 28.7652 11 28.5V16.5C11 16.2348 11.1054 15.9804 11.2929 15.7929C11.4804 15.6054 11.7348 15.5 12 15.5H21.81C22.4159 14.8669 23.1439 14.3632 23.9501 14.0194C24.7562 13.6757 25.6236 13.499 26.5 13.5C28.343 13.5 30.007 14.267 31.19 15.5H32C32.2652 15.5 32.5196 15.6054 32.7071 15.7929C32.8946 15.9804 33 16.2348 33 16.5V28.5C33 28.7652 32.8946 29.0196 32.7071 29.2071C32.5196 29.3946 32.2652 29.5 32 29.5ZM26.5 24.5C27.0909 24.5 27.6761 24.3836 28.2221 24.1575C28.768 23.9313 29.2641 23.5998 29.682 23.182C30.0998 22.7641 30.4313 22.268 30.6575 21.7221C30.8836 21.1761 31 20.591 31 20C31 19.4091 30.8836 18.8239 30.6575 18.2779C30.4313 17.732 30.0998 17.2359 29.682 16.818C29.2641 16.4002 28.768 16.0687 28.2221 15.8425C27.6761 15.6164 27.0909 15.5 26.5 15.5C25.3065 15.5 24.1619 15.9741 23.318 16.818C22.4741 17.6619 22 18.8065 22 20C22 21.1935 22.4741 22.3381 23.318 23.182C24.1619 24.0259 25.3065 24.5 26.5 24.5ZM26.5 22.5C25.837 22.5 25.2011 22.2366 24.7322 21.7678C24.2634 21.2989 24 20.663 24 20C24 19.337 24.2634 18.7011 24.7322 18.2322C25.2011 17.7634 25.837 17.5 26.5 17.5C27.163 17.5 27.7989 17.7634 28.2678 18.2322C28.7366 18.7011 29 19.337 29 20C29 20.663 28.7366 21.2989 28.2678 21.7678C27.7989 22.2366 27.163 22.5 26.5 22.5ZM14 23.5V25.5H16V23.5H14ZM18 23.5V25.5H20V23.5H18Z" fill="white"/>
</g>
</g>
<defs>
<filter id="filter0_ii_1_64200" x="0" y="-3.5" width="44" height="52" filterUnits="userSpaceOnUse" color-interpolation-filters="sRGB">
<feFlood flood-opacity="0" result="BackgroundImageFix"/>
<feBlend mode="normal" in="SourceGraphic" in2="BackgroundImageFix" result="shape"/>
<feColorMatrix in="SourceAlpha" type="matrix" values="0 0 0 0 0 0 0 0 0 0 0 0 0 0 0 0 0 0 127 0" result="hardAlpha"/>
<feOffset dy="4"/>
<feGaussianBlur stdDeviation="2.5"/>
<feComposite in2="hardAlpha" operator="arithmetic" k2="-1" k3="1"/>
<feColorMatrix type="matrix" values="0 0 0 0 1 0 0 0 0 1 0 0 0 0 1 0 0 0 0.43 0"/>
<feBlend mode="normal" in2="shape" result="effect1_innerShadow_1_64200"/>
<feColorMatrix in="SourceAlpha" type="matrix" values="0 0 0 0 0 0 0 0 0 0 0 0 0 0 0 0 0 0 127 0" result="hardAlpha"/>
<feOffset dy="-4"/>
<feGaussianBlur stdDeviation="5"/>
<feComposite in2="hardAlpha" operator="arithmetic" k2="-1" k3="1"/>
<feColorMatrix type="matrix" values="0 0 0 0 0.760219 0 0 0 0 0.554184 0 0 0 0 0.970833 0 0 0 1 0"/>
<feBlend mode="normal" in2="effect1_innerShadow_1_64200" result="effect2_innerShadow_1_64200"/>
</filter>
<linearGradient id="paint0_linear_1_64200" x1="44" y1="24.2643" x2="-6.08619e-07" y2="24.6199" gradientUnits="userSpaceOnUse">
<stop stop-color="#CC9AFF"/>
<stop offset="1" stop-color="#CC9AFF" stop-opacity="0.33"/>
</linearGradient>
<clipPath id="clip0_1_64200">
<rect width="24" height="24" fill="white" transform="translate(10 10.5)"/>
</clipPath>
</defs>
</svg>
