<svg  viewBox="0 0 18 18" fill="none" xmlns="http://www.w3.org/2000/svg">
<path fill-rule="evenodd" clip-rule="evenodd" d="M17.2501 4.11765C17.2501 5.9772 15.742 7.4853 13.8825 7.4853C12.0229 7.4853 10.5156 5.9772 10.5156 4.11765C10.5156 2.2581 12.0229 0.75 13.8825 0.75C15.742 0.75 17.2501 2.2581 17.2501 4.11765Z" stroke="#696984" stroke-width="1.5" stroke-linecap="round" stroke-linejoin="round"/>
<path fill-rule="evenodd" clip-rule="evenodd" d="M7.48448 4.11765C7.48448 5.9772 5.9772 7.4853 4.11683 7.4853C2.2581 7.4853 0.75 5.9772 0.75 4.11765C0.75 2.2581 2.2581 0.75 4.11683 0.75C5.9772 0.75 7.48448 2.2581 7.48448 4.11765Z" stroke="#696984" stroke-width="1.5" stroke-linecap="round" stroke-linejoin="round"/>
<path fill-rule="evenodd" clip-rule="evenodd" d="M17.2501 13.8227C17.2501 15.6823 15.742 17.1896 13.8825 17.1896C12.0229 17.1896 10.5156 15.6823 10.5156 13.8227C10.5156 11.9632 12.0229 10.4551 13.8825 10.4551C15.742 10.4551 17.2501 11.9632 17.2501 13.8227Z" stroke="#696984" stroke-width="1.5" stroke-linecap="round" stroke-linejoin="round"/>
<path fill-rule="evenodd" clip-rule="evenodd" d="M7.48448 13.8227C7.48448 15.6823 5.9772 17.1896 4.11683 17.1896C2.2581 17.1896 0.75 15.6823 0.75 13.8227C0.75 11.9632 2.2581 10.4551 4.11683 10.4551C5.9772 10.4551 7.48448 11.9632 7.48448 13.8227Z" stroke="#696984" stroke-width="1.5" stroke-linecap="round" stroke-linejoin="round"/>
</svg>
