<svg width="116" height="40" viewBox="0 0 116 40" fill="none" xmlns="http://www.w3.org/2000/svg">
<rect width="116" height="40" rx="10" fill="#019DA4" fill-opacity="0.1"/>
<path d="M16.5687 23V17.7145H15.5978V16.6618H16.5687V16.0782C16.5687 15.3764 16.7632 14.8345 17.1523 14.4527C17.5414 14.0673 18.0887 13.8745 18.7941 13.8745C19.045 13.8745 19.3105 13.9109 19.5905 13.9836L19.5523 15.0964C19.3959 15.0636 19.2159 15.0473 19.0123 15.0473C18.3323 15.0473 17.9923 15.3982 17.9923 16.1V16.6618H19.2796V17.7145H17.9923V23H16.5687ZM24.1062 23C24.0444 22.88 23.9898 22.6836 23.9426 22.4109C23.4917 22.88 22.9371 23.1145 22.2789 23.1145C21.6426 23.1145 21.1226 22.9345 20.7189 22.5745C20.3189 22.2109 20.1189 21.7618 20.1189 21.2273C20.1189 20.5509 20.3698 20.0327 20.8717 19.6727C21.3735 19.3091 22.0898 19.1273 23.0208 19.1273H23.8989V18.7127C23.8989 18.3818 23.8062 18.1182 23.6208 17.9218C23.4389 17.7255 23.1589 17.6273 22.7808 17.6273C22.4571 17.6273 22.1917 17.7091 21.9844 17.8727C21.7771 18.0327 21.6735 18.2382 21.6735 18.4891H20.2498C20.2498 18.14 20.3644 17.8145 20.5935 17.5127C20.8262 17.2109 21.1408 16.9745 21.5371 16.8036C21.9335 16.6291 22.3753 16.5418 22.8626 16.5418C23.608 16.5418 24.2008 16.7291 24.6408 17.1036C25.0808 17.4745 25.308 17.9982 25.3226 18.6745V21.5327C25.3226 22.1036 25.4026 22.56 25.5626 22.9018V23H24.1062ZM22.5408 21.9745C22.8244 21.9745 23.0898 21.9073 23.3371 21.7727C23.5844 21.6345 23.7717 21.4491 23.8989 21.2164V20.0218H23.1298C22.6026 20.0218 22.2062 20.1145 21.9408 20.3C21.6753 20.4818 21.5426 20.7418 21.5426 21.08C21.5426 21.3527 21.6335 21.5709 21.8153 21.7345C21.9971 21.8945 22.2389 21.9745 22.5408 21.9745ZM29.4148 21.98C29.7711 21.98 30.0657 21.8764 30.2984 21.6691C30.5348 21.4618 30.6602 21.2055 30.6748 20.9H32.0166C32.002 21.2964 31.8784 21.6655 31.6457 22.0073C31.4166 22.3491 31.1038 22.62 30.7075 22.82C30.3148 23.0164 29.8893 23.1145 29.4311 23.1145C28.5475 23.1145 27.8457 22.8291 27.3257 22.2582C26.8057 21.6836 26.5457 20.8891 26.5457 19.8745V19.7327C26.5457 18.7655 26.802 17.9927 27.3148 17.4145C27.8311 16.8327 28.5348 16.5418 29.4257 16.5418C30.182 16.5418 30.7966 16.7618 31.2693 17.2018C31.7457 17.6418 31.9948 18.2182 32.0166 18.9309H30.6748C30.6602 18.5709 30.5366 18.2745 30.3038 18.0418C30.0711 17.8055 29.7748 17.6873 29.4148 17.6873C28.9529 17.6873 28.5966 17.8545 28.3457 18.1891C28.0984 18.52 27.9729 19.0255 27.9693 19.7055V19.9345C27.9693 20.6218 28.0929 21.1345 28.3402 21.4727C28.5875 21.8109 28.9457 21.98 29.4148 21.98ZM34.8778 15.1182V16.6618H35.996V17.7145H34.8778V21.2545C34.8778 21.4945 34.9251 21.6691 35.0196 21.7782C35.1142 21.8873 35.2851 21.9418 35.5324 21.9418C35.696 21.9418 35.8615 21.9218 36.0287 21.8818V22.9836C35.7051 23.0709 35.3942 23.1145 35.096 23.1145C34.0015 23.1145 33.4542 22.5127 33.4542 21.3091V17.7145H32.4124V16.6618H33.4542V15.1182H34.8778ZM36.823 19.7709C36.823 19.1491 36.9448 18.5891 37.1885 18.0909C37.4357 17.5927 37.7812 17.2109 38.2248 16.9455C38.6721 16.6764 39.1848 16.5418 39.763 16.5418C40.6176 16.5418 41.3121 16.8182 41.8466 17.3709C42.3812 17.92 42.6685 18.6491 42.7085 19.5582L42.7194 19.8964C42.7194 20.5218 42.5976 21.08 42.3539 21.5709C42.1139 22.0618 41.7703 22.4418 41.323 22.7109C40.8757 22.98 40.3594 23.1145 39.7739 23.1145C38.8794 23.1145 38.163 22.8182 37.6248 22.2255C37.0903 21.6291 36.823 20.8345 36.823 19.8418V19.7709ZM38.2466 19.8964C38.2466 20.5473 38.3812 21.0582 38.6503 21.4291C38.9194 21.7964 39.2939 21.98 39.7739 21.98C40.2539 21.98 40.6285 21.7927 40.8976 21.4182C41.1666 21.0436 41.3012 20.4945 41.3012 19.7709C41.3012 19.1309 41.163 18.6236 40.8866 18.2491C40.6103 17.8745 40.2357 17.6873 39.763 17.6873C39.2976 17.6873 38.9285 17.8727 38.6557 18.2436C38.383 18.6109 38.2466 19.1618 38.2466 19.8964ZM47.2387 17.96C47.0532 17.9309 46.8605 17.9164 46.6605 17.9164C46.0096 17.9164 45.5696 18.1655 45.3405 18.6636V23H43.9169V16.6618H45.275L45.3132 17.3709C45.655 16.8182 46.1314 16.5418 46.7423 16.5418C46.946 16.5418 47.1132 16.5691 47.2441 16.6236L47.2387 17.96ZM49.0192 21.3964C49.3065 21.3964 49.5265 21.4764 49.6792 21.6364C49.8356 21.7964 49.9138 21.9964 49.9138 22.2364C49.9138 22.4764 49.8356 22.6745 49.6792 22.8309C49.5265 22.9873 49.3065 23.0655 49.0192 23.0655C48.7538 23.0655 48.5411 22.9891 48.3811 22.8364C48.2211 22.68 48.1411 22.48 48.1411 22.2364C48.1411 21.9964 48.2174 21.7964 48.3702 21.6364C48.5265 21.4764 48.7429 21.3964 49.0192 21.3964ZM57.0454 19.8964C57.0454 20.8745 56.8217 21.6564 56.3744 22.2418C55.9308 22.8236 55.3326 23.1145 54.5799 23.1145C53.8854 23.1145 53.329 22.8873 52.9108 22.4327V25.4382H51.4872V16.6618H52.8017L52.8617 17.3055C53.2799 16.7964 53.8472 16.5418 54.5635 16.5418C55.3381 16.5418 55.9454 16.8309 56.3854 17.4091C56.8254 17.9836 57.0454 18.7836 57.0454 19.8091V19.8964ZM55.6272 19.7709C55.6272 19.1382 55.4999 18.6364 55.2454 18.2655C54.9944 17.8945 54.6344 17.7091 54.1654 17.7091C53.5835 17.7091 53.1654 17.9491 52.9108 18.4291V21.2436C53.169 21.7345 53.5908 21.98 54.1763 21.98C54.6308 21.98 54.9854 21.7982 55.2399 21.4345C55.4981 21.0673 55.6272 20.5127 55.6272 19.7709ZM59.5743 16.6618L59.6125 17.3927C60.0816 16.8255 60.698 16.5418 61.4616 16.5418C62.7816 16.5418 63.4525 17.2982 63.4743 18.8109V23H62.0507V18.8927C62.0507 18.4891 61.9634 18.1909 61.7889 17.9982C61.618 17.8055 61.3343 17.7091 60.938 17.7091C60.3634 17.7091 59.9362 17.9691 59.6562 18.4891V23H58.2325V16.6618H59.5743ZM64.6831 19.7818C64.6831 18.8 64.914 18.0145 65.3759 17.4255C65.8413 16.8364 66.4559 16.5418 67.2195 16.5418C67.9431 16.5418 68.5122 16.7945 68.9268 17.3L68.9922 16.6618H70.274V22.8091C70.274 23.6382 70.014 24.2927 69.494 24.7727C68.9777 25.2564 68.2813 25.4982 67.4049 25.4982C66.9395 25.4982 66.4849 25.4 66.0413 25.2036C65.5977 25.0109 65.2595 24.7582 65.0268 24.4455L65.7031 23.5891C66.1395 24.1091 66.6777 24.3691 67.3177 24.3691C67.7904 24.3691 68.1631 24.2418 68.4359 23.9873C68.7122 23.7327 68.8504 23.3564 68.8504 22.8582V22.4327C68.4395 22.8873 67.8922 23.1145 67.2086 23.1145C66.4668 23.1145 65.8595 22.82 65.3868 22.2309C64.9177 21.6418 64.6831 20.8255 64.6831 19.7818ZM66.1013 19.9073C66.1013 20.5436 66.2304 21.0455 66.4886 21.4127C66.7504 21.7764 67.1122 21.9582 67.574 21.9582C68.1486 21.9582 68.574 21.7109 68.8504 21.2164V18.4291C68.5813 17.9491 68.1595 17.7091 67.5849 17.7091C67.1159 17.7091 66.7504 17.8945 66.4886 18.2655C66.2304 18.6364 66.1013 19.1836 66.1013 19.9073Z" fill="#019DA4"/>
<path opacity="0.4" d="M94.61 28.3346H87.3878C84.5634 28.3346 82.666 26.3537 82.666 23.4049V16.5986C82.666 13.6497 84.5634 11.668 87.3878 11.668H94.6109C97.4353 11.668 99.3327 13.6497 99.3327 16.5986V23.4049C99.3327 26.3537 97.4353 28.3346 94.61 28.3346Z" fill="#019DA4"/>
<path fill-rule="evenodd" clip-rule="evenodd" d="M90.3696 17.2318C90.3696 18.3735 89.4404 19.3027 88.2988 19.3027C87.1563 19.3027 86.2279 18.3735 86.2279 17.2318C86.2279 16.0902 87.1563 15.1602 88.2988 15.1602C89.4404 15.1602 90.3696 16.0902 90.3696 17.2318ZM97.1658 21.7423C97.3599 21.9307 97.4991 22.1457 97.5908 22.3748C97.8683 23.0682 97.7241 23.9015 97.4274 24.5882C97.0758 25.4057 96.4024 26.0232 95.5541 26.2932C95.1774 26.414 94.7824 26.4657 94.3883 26.4657H87.4041C86.7091 26.4657 86.0941 26.304 85.5899 26.0007C85.2741 25.8107 85.2183 25.3732 85.4524 25.0882C85.8441 24.6132 86.2308 24.1365 86.6208 23.6557C87.3641 22.7357 87.8649 22.469 88.4216 22.7032C88.6474 22.7998 88.8741 22.9457 89.1074 23.099C89.7291 23.5107 90.5933 24.0757 91.7316 23.4623C92.5097 23.0369 92.9614 22.3088 93.3545 21.6751L93.3624 21.6623C93.3889 21.6199 93.4151 21.5775 93.4413 21.5352C93.575 21.3192 93.7066 21.1065 93.8558 20.9107C94.0408 20.6682 94.7274 19.9098 95.6149 20.4498C96.1808 20.7898 96.6566 21.2498 97.1658 21.7423Z" fill="#019DA4"/>
</svg>
