<svg  viewBox="0 0 20 21" fill="none" xmlns="http://www.w3.org/2000/svg">
<mask id="mask0_1_61832" style="mask-type:luminance" maskUnits="userSpaceOnUse" x="1" y="2" width="17" height="17">
<path fill-rule="evenodd" clip-rule="evenodd" d="M1.66797 2.16602H17.9176V18.4166H1.66797V2.16602Z" fill="white"/>
</mask>
<g mask="url(#mask0_1_61832)">
<path fill-rule="evenodd" clip-rule="evenodd" d="M7.31214 10.1652C7.32714 10.1785 7.3413 10.191 7.35547 10.206C8.25464 11.1277 8.75047 12.3485 8.75047 13.6444V16.9643L10.6138 15.9494C10.7605 15.8694 10.8513 15.7127 10.8513 15.5402V13.6343C10.8513 12.3435 11.3421 11.1269 12.233 10.2102L16.2638 5.92268C16.5246 5.64518 16.668 5.28102 16.668 4.89685V4.11685C16.668 3.73018 16.363 3.41602 15.9896 3.41602H3.59714C3.22297 3.41602 2.91797 3.73018 2.91797 4.11685V4.89685C2.91797 5.28102 3.0613 5.64518 3.32214 5.92185L7.31214 10.1652ZM8.4563 18.4168C8.28797 18.4168 8.1213 18.3719 7.96964 18.2819C7.6763 18.1069 7.50047 17.7977 7.50047 17.4544V13.6444C7.50047 12.6985 7.14797 11.8077 6.50547 11.1252C6.4863 11.1093 6.46713 11.0918 6.45047 11.0735L2.41214 6.77935C1.93214 6.26935 1.66797 5.60018 1.66797 4.89685V4.11685C1.66797 3.04102 2.5338 2.16602 3.59714 2.16602H15.9896C17.0521 2.16602 17.918 3.04102 17.918 4.11685V4.89685C17.918 5.59935 17.6538 6.26768 17.1755 6.77852L13.1363 11.0735C12.4671 11.7635 12.1013 12.671 12.1013 13.6343V15.5402C12.1013 16.1702 11.7605 16.7469 11.2121 17.0469L8.9113 18.3002C8.76797 18.3777 8.61214 18.4168 8.4563 18.4168Z" fill="#384045"/>
</g>
</svg>
