<svg  viewBox="0 0 17 17" fill="none" xmlns="http://www.w3.org/2000/svg">
<path opacity="0.4" d="M11.9591 3.62236H9.8744C9.35507 3.6258 8.862 3.39478 8.5329 2.99383L7.84641 2.04475C7.52282 1.64028 7.02977 1.40818 6.51121 1.41622H5.03744C2.39223 1.41622 1.41602 2.96869 1.41602 5.60852V8.46206C1.41273 8.77587 15.5796 8.77547 15.5805 8.46206V7.6324C15.5931 4.99256 14.6421 3.62236 11.9591 3.62236Z" fill="#696984"/>
<path fill-rule="evenodd" clip-rule="evenodd" d="M14.7554 4.63428C14.9821 4.89926 15.1572 5.20406 15.2719 5.53308C15.4976 6.20932 15.602 6.91995 15.5805 7.63238V11.3533C15.5796 11.6667 15.5564 11.9797 15.5112 12.2898C15.4251 12.8371 15.2325 13.3624 14.9444 13.836C14.8119 14.0647 14.6511 14.2759 14.4657 14.4645C13.6265 15.2348 12.512 15.6357 11.3734 15.577H5.61687C4.47637 15.6353 3.36012 15.2345 2.51819 14.4645C2.33501 14.2756 2.17632 14.0644 2.04583 13.836C1.75938 13.3627 1.57092 12.837 1.49159 12.2898C1.44115 11.9802 1.41588 11.667 1.41602 11.3533V7.63238C1.41589 7.32162 1.43271 7.01109 1.4664 6.70215C1.47349 6.64795 1.48411 6.59463 1.49463 6.54187C1.51216 6.4539 1.52938 6.36747 1.52938 6.28104C1.59332 5.90822 1.70994 5.54635 1.87578 5.20625C2.36703 4.1566 3.37473 3.62235 5.02484 3.62235H11.9528C12.877 3.55087 13.7943 3.8291 14.5224 4.40172C14.6063 4.47283 14.6842 4.5506 14.7554 4.63428ZM4.93667 11.0076H12.0661H12.0787C12.2352 11.0144 12.3878 10.9584 12.5026 10.8521C12.6174 10.7458 12.6848 10.5981 12.6897 10.4419C12.6985 10.3046 12.6533 10.1693 12.5637 10.0648C12.4606 9.92433 12.2973 9.8405 12.1228 9.83853H4.93667C4.61318 9.83853 4.35094 10.1002 4.35094 10.4231C4.35094 10.7459 4.61318 11.0076 4.93667 11.0076Z" fill="#696984"/>
</svg>
