<svg viewBox="0 0 22 22" fill="none" xmlns="http://www.w3.org/2000/svg">
<g clip-path="url(#clip0_786_49921)">
<path d="M17.6137 8.53222V7.61404C17.612 6.15093 17.03 4.74825 15.9953 3.71372C14.9607 2.67919 13.558 2.0973 12.0949 2.0957H9.90572C8.44269 2.0974 7.04007 2.67934 6.00555 3.71386C4.97103 4.74838 4.38909 6.151 4.38739 7.61404V8.53222C3.76513 8.58041 3.18384 8.86113 2.75919 9.31851C2.33454 9.77589 2.09766 10.3764 2.0957 11.0005V13.7505C2.09649 14.4102 2.35888 15.0426 2.82534 15.509C3.29179 15.9755 3.92421 16.2379 4.58387 16.2387H5.50053C5.91717 16.2382 6.31662 16.0725 6.61123 15.7779C6.90584 15.4832 7.07155 15.0838 7.07202 14.6672V10.0838C7.07085 9.70219 6.93056 9.33406 6.67745 9.04843C6.42433 8.7628 6.07575 8.57926 5.69702 8.5322V7.61404C5.69826 6.4982 6.14207 5.42842 6.93108 4.6394C7.7201 3.85038 8.78988 3.40657 9.90572 3.40534H12.0949C13.2108 3.40655 14.2806 3.85035 15.0697 4.63935C15.8588 5.42836 16.3027 6.49815 16.304 7.61404V8.53222C15.9253 8.57928 15.5767 8.76282 15.3236 9.04845C15.0705 9.33408 14.9302 9.70219 14.929 10.0838V14.6672C14.9298 14.9673 15.0165 15.261 15.179 15.5133C15.3414 15.7657 15.5728 15.9663 15.8457 16.0912V16.5005C15.8454 16.813 15.7211 17.1125 15.5002 17.3335C15.2792 17.5544 14.9797 17.6787 14.6672 17.679H13.2465C13.115 17.342 12.8851 17.0525 12.5866 16.8481C12.2882 16.6437 11.9352 16.534 11.5735 16.5332H10.4276C10.1908 16.5326 9.95622 16.5788 9.73729 16.6691C9.51835 16.7593 9.31937 16.8919 9.15173 17.0591C8.98409 17.2264 8.85109 17.4251 8.76035 17.6438C8.6696 17.8625 8.62289 18.097 8.62289 18.3338C8.62289 18.5706 8.6696 18.8051 8.76035 19.0238C8.85109 19.2426 8.98409 19.4413 9.15173 19.6085C9.31937 19.7758 9.51835 19.9083 9.73729 19.9986C9.95622 20.0888 10.1908 20.135 10.4276 20.1345H11.5735C11.9351 20.1336 12.2882 20.0239 12.5866 19.8195C12.885 19.6151 13.115 19.3256 13.2465 18.9886H14.6672C15.3269 18.9879 15.9593 18.7255 16.4257 18.259C16.8922 17.7926 17.1546 17.1602 17.1554 16.5005V16.2387H17.4172C18.0769 16.2379 18.7093 15.9755 19.1757 15.509C19.6422 15.0426 19.9046 14.4102 19.9054 13.7505V11.0005C19.9034 10.3764 19.6665 9.77589 19.2419 9.31852C18.8172 8.86114 18.2359 8.58042 17.6137 8.53222ZM5.76237 14.6672C5.76236 14.7366 5.73476 14.8032 5.68566 14.8523C5.63656 14.9014 5.56997 14.929 5.50053 14.929H4.58387C4.27141 14.9287 3.97184 14.8044 3.7509 14.5835C3.52995 14.3625 3.40568 14.063 3.40535 13.7505V11.0005C3.40568 10.688 3.52995 10.3885 3.75089 10.1675C3.97184 9.94658 4.27141 9.82231 4.58387 9.82198H5.50053C5.56997 9.822 5.63657 9.84959 5.68567 9.89869C5.73477 9.9478 5.76236 10.0144 5.76237 10.0838V14.6672ZM11.5735 18.8248H10.4276C10.363 18.8251 10.2989 18.8126 10.2391 18.7881C10.1792 18.7635 10.1249 18.7274 10.079 18.6818C10.0332 18.6361 9.99687 18.5819 9.97206 18.5222C9.94725 18.4625 9.93448 18.3985 9.93448 18.3338C9.93448 18.2692 9.94725 18.2051 9.97206 18.1454C9.99687 18.0857 10.0332 18.0315 10.079 17.9859C10.1249 17.9403 10.1792 17.9041 10.2391 17.8796C10.2989 17.855 10.363 17.8425 10.4276 17.8428H11.5735C11.7033 17.8434 11.8277 17.8954 11.9193 17.9874C12.0109 18.0794 12.0623 18.204 12.0623 18.3338C12.0623 18.4637 12.0109 18.5882 11.9193 18.6803C11.8277 18.7723 11.7033 18.8243 11.5735 18.8248ZM18.5957 13.7505C18.5954 14.063 18.4711 14.3625 18.2502 14.5835C18.0292 14.8044 17.7297 14.9287 17.4172 14.929H16.5005C16.4311 14.929 16.3645 14.9014 16.3154 14.8523C16.2663 14.8032 16.2387 14.7366 16.2387 14.6672V10.0838C16.2387 10.0144 16.2663 9.94779 16.3154 9.89869C16.3645 9.84959 16.4311 9.822 16.5005 9.82198H17.4172C17.7297 9.82231 18.0292 9.94658 18.2502 10.1675C18.4711 10.3885 18.5954 10.688 18.5957 11.0005V13.7505Z" fill="#757886"/>
</g>
<defs>
<clipPath id="clip0_786_49921">
<rect width="22" height="22" fill="white"/>
</clipPath>
</defs>
</svg>
