<svg width="25" height="24" viewBox="0 0 25 24" fill="none" xmlns="http://www.w3.org/2000/svg">
<path d="M11.4004 4.00023H4.40039C3.86996 4.00023 3.36125 4.21094 2.98618 4.58601C2.6111 4.96109 2.40039 5.46979 2.40039 6.00023V20.0002C2.40039 20.5307 2.6111 21.0394 2.98618 21.4144C3.36125 21.7895 3.86996 22.0002 4.40039 22.0002H18.4004C18.9308 22.0002 19.4395 21.7895 19.8146 21.4144C20.1897 21.0394 20.4004 20.5307 20.4004 20.0002V13.0002M18.9004 2.50023C19.2982 2.1024 19.8378 1.87891 20.4004 1.87891C20.963 1.87891 21.5026 2.1024 21.9004 2.50023C22.2982 2.89805 22.5217 3.43762 22.5217 4.00023C22.5217 4.56284 22.2982 5.1024 21.9004 5.50023L12.4004 15.0002L8.40039 16.0002L9.40039 12.0002L18.9004 2.50023Z" stroke="#019DA4" stroke-width="1.5" stroke-linecap="round" stroke-linejoin="round"/>
</svg>
