<svg  viewBox="0 0 19 19" fill="none" xmlns="http://www.w3.org/2000/svg">
<mask id="mask0_890_23239" style="mask-type:luminance" maskUnits="userSpaceOnUse" x="1" y="3" width="13" height="14">
<path fill-rule="evenodd" clip-rule="evenodd" d="M1.58398 3.95898H13.855V16.2309H1.58398V3.95898Z" fill="white"/>
</mask>
<g mask="url(#mask0_890_23239)">
<path fill-rule="evenodd" clip-rule="evenodd" d="M5.42128 5.14755C5.07374 5.14755 4.84969 5.14755 4.8109 5.14913C4.22665 5.17367 3.68753 5.42147 3.29882 5.8458C2.93624 6.24242 2.7494 6.74909 2.77394 7.27476C2.77394 9.56505 2.77474 13.0025 2.78028 13.1909C2.87053 14.2873 3.89811 15.1257 5.07453 15.0355C7.25161 15.0386 10.4769 15.0458 10.6281 15.0402C11.2099 15.0165 11.7499 14.7695 12.1386 14.3459C12.5019 13.9509 12.6888 13.4442 12.6658 12.9209C12.665 12.9122 12.665 12.9035 12.665 12.8948C12.6658 10.6306 12.6658 7.19559 12.6603 7.01113C12.5708 5.90913 11.5385 5.06047 10.3557 5.15309C8.72015 5.15072 6.48844 5.14755 5.42128 5.14755ZM4.86632 16.2309C3.19274 16.2317 1.7329 14.9492 1.59515 13.2669C1.59278 13.2344 1.58486 13.1355 1.58724 7.30168C1.54924 6.48547 1.84532 5.6748 2.42324 5.04384C3.02649 4.38518 3.85853 4.00122 4.76657 3.96243C4.87661 3.95451 8.68294 3.96401 10.313 3.96718C12.0942 3.84209 13.7021 5.16418 13.8454 6.9383C13.8517 7.02459 13.8541 9.02355 13.8525 12.8829C13.8858 13.7189 13.5881 14.5241 13.0134 15.1495C12.4093 15.8073 11.5765 16.1897 10.6692 16.2269C10.5584 16.2348 6.75049 16.2246 5.11807 16.2214C5.03415 16.2277 4.95024 16.2309 4.86632 16.2309Z" fill="#696984"/>
</g>
<path fill-rule="evenodd" clip-rule="evenodd" d="M16.4821 14.5278C16.1251 14.5278 15.7728 14.4051 15.4822 14.1668L12.8848 12.0325C12.6315 11.8243 12.595 11.4498 12.8032 11.1965C13.0107 10.944 13.3851 10.906 13.6385 11.115L16.2351 13.2493C16.4101 13.3918 16.5858 13.3332 16.6539 13.3C16.722 13.2683 16.8795 13.1693 16.8795 12.9445L16.889 7.12655C16.8898 6.90171 16.7315 6.80276 16.6634 6.7703C16.5961 6.73863 16.418 6.67926 16.2446 6.82176L13.6377 8.9553C13.3827 9.16351 13.0099 9.1263 12.8025 8.87138C12.5942 8.61805 12.6322 8.24438 12.8856 8.03696L15.4925 5.90263C15.9707 5.51076 16.6143 5.43396 17.1725 5.69759C17.7306 5.9628 18.0773 6.51063 18.0765 7.12813L18.067 12.9461C18.0662 13.5636 17.7187 14.1114 17.1614 14.3743C16.9429 14.478 16.7117 14.5278 16.4821 14.5278Z" fill="#696984"/>
</svg>
